# xmcd
#
# Track frame offsets:
# 150
# 27657
# 49653
# 69248
# 87042
# 109933
# 134499
# 151898
# 169761
# 191228
# 213326
# 233058
# 249582
# 272382
#
# Disc length: 3754 seconds
#
#
# Revision: 0
# Processed by: cddbd v1.5.2PL0 Copyright (c) Steve Scherf et al.
# Submitted via: FreeRIP 2.941 
#
DISCID=be0ea80e
DTITLE=Dr. Dre - Best of Dr. Dre
DYEAR=1900
DGENRE=Hip-Hop
TTITLE0=Ben there done that
TTITLE1=Wit Dre day
TTITLE2=Let me ride
TTITLE3=Nuthin but a "G" thang
TTITLE4=Deeez nuuutz
TTITLE5=Lil guetto boy
TTITLE6=A nigga witta a gun
TTITLE7=Keep their heads ringin (edit)
TTITLE8=Natural born killaz
TTITLE9=East coast killaz
TTITLE10=L.A.W.
TTITLE11=187um (ft. Snoopy Doggy)
TTITLE12=Keep their heads ringin (extd)
TTITLE13=Instrumental
EXTD=
EXTT0=
EXTT1=
EXTT2=
EXTT3=
EXTT4=
EXTT5=
EXTT6=
EXTT7=
EXTT8=
EXTT9=
EXTT10=
EXTT11=
EXTT12=
EXTT13=
PLAYORDER=
